<svg width="160" height="240" xmlns="http://www.w3.org/2000/svg">
    <style type="text/css"><![CDATA[ line { stroke: #ffffff; stroke-width: 3; } ]]></style>
 <g>
  <title>background</title>
  <rect fill="none" id="canvas_background" height="514" width="514" y="-1" x="-1"/>
 </g>
 <g>
  <title>Layer 1</title>
  <g transform="rotate(-180 39.68000030517579,61.43960952758789) " id="svg_1">
   <path id="svg_2" d="m50.2,121.63c6.71,-1.85 12.72,-5.44 17.51,-10.23c7.19,-7.19 11.65,-17.11 11.65,-28.03l0,-43.69c0,-10.92 -4.46,-20.84 -11.65,-28.03c-7.19,-7.19 -17.11,-11.65 -28.03,-11.65c-10.91,0 -20.84,4.46 -28.03,11.65c-7.19,7.19 -11.65,17.12 -11.65,28.03l0,43.68c0,10.92 4.46,20.84 11.65,28.03c5.59,5.59 12.82,9.53 20.89,11.01c4.88,0.9 13.16,0.47 17.66,-0.77l0,0l0,0zm-10.97,-29.57c4.15,0 7.55,-3.4 7.55,-7.55l0,-7.78c0,-4.15 -3.4,-7.55 -7.55,-7.55c-4.15,0 -7.55,3.4 -7.55,7.55l0,7.78c0,4.15 3.39,7.55 7.55,7.55l0,0zm21.85,12.71c-5.49,5.49 -13.07,8.91 -21.4,8.91c-8.33,0 -15.9,-3.41 -21.4,-8.91c-5.49,-5.49 -8.91,-13.07 -8.91,-21.4l0,-43.69c0,-8.33 3.41,-15.9 8.91,-21.4c5.49,-5.49 13.07,-8.91 21.4,-8.91c8.33,0 15.9,3.41 21.4,8.91c5.49,5.49 8.91,13.07 8.91,21.4l0,43.68c0,8.34 -3.41,15.91 -8.91,21.41l0,0l0,0z"/>
  </g>
 </g>
</svg>