<svg id="Version_2_big" data-name="Version 2 big" xmlns="http://www.w3.org/2000/svg" xmlns:xlink="http://www.w3.org/1999/xlink" viewBox="0 0 1823.48 338.52"><defs><linearGradient id="Unbenannter_Verlauf_44" x1="67.55" y1="212.07" x2="233.55" y2="139.67" gradientUnits="userSpaceOnUse"><stop offset="0" stop-color="#0071bc"/><stop offset="0.09" stop-color="#107fca"/><stop offset="0.26" stop-color="#2592dd"/><stop offset="0.45" stop-color="#349feb"/><stop offset="0.67" stop-color="#3ca7f3"/><stop offset="1" stop-color="#3fa9f5"/></linearGradient><linearGradient id="Unbenannter_Verlauf_44-2" x1="26.31" y1="229.35" x2="296.45" y2="111.08" xlink:href="#Unbenannter_Verlauf_44"/></defs><line x1="339.24" y1="338.52" x2="339.24" style="fill:#0071bc;stroke:#00aef0;stroke-miterlimit:10;stroke-width:5px"/><path d="M259.52,101.51l-17,13a92.9,92.9,0,0,0-33.77-27.76,98.75,98.75,0,0,0-43.28-9.45,95.71,95.71,0,0,0-47.76,12.38,88.72,88.72,0,0,0-34,33.25q-12.09,20.88-12.09,46.95,0,39.41,27,65.77t68.18,26.37q45.27,0,75.74-35.45l17,12.89a108.62,108.62,0,0,1-40.21,31.71q-24.1,11.21-53.83,11.21-56.55,0-89.21-37.65Q48.87,213,48.88,168q0-47.31,33.17-79.61t83.13-32.3q30.18,0,54.5,11.94A105.8,105.8,0,0,1,259.52,101.51Z" style="fill:url(#Unbenannter_Verlauf_44)"/><path d="M294.9,74.41,271.11,92.66Q251.43,67,223.84,53.8t-60.6-13.23A133.93,133.93,0,0,0,96.39,57.9Q65.63,75.24,48.71,104.45T31.79,170.18q0,55.17,37.83,92.08t95.47,36.92q63.36,0,106-49.63l23.79,18A152,152,0,0,1,238.61,312q-33.74,15.69-75.37,15.69-79.16,0-124.89-52.7Q0,230.48,0,167.52,0,101.28,46.45,56.06T162.83,10.84q42.25,0,76.29,16.71A148.06,148.06,0,0,1,294.9,74.41Z" style="fill:url(#Unbenannter_Verlauf_44-2)"/><path d="M494.8,103.59l2.79,41.58H494.8a70.79,70.79,0,0,0-6.81-16,42.15,42.15,0,0,0-9.16-10.92,34,34,0,0,0-11.37-6.22,44.42,44.42,0,0,0-13.53-2,39.76,39.76,0,0,0-21.74,6q-9.46,6-15.06,18.45a68.7,68.7,0,0,0-4.69,15.56,106.26,106.26,0,0,0-1.63,19.53q0,16.5,5.33,28.78A41.62,41.62,0,0,0,423,209.31a39.27,39.27,0,0,0,9.33,7.85,43.29,43.29,0,0,0,11.41,4.78,50.53,50.53,0,0,0,12.86,1.62A49.24,49.24,0,0,0,469.63,222a32.61,32.61,0,0,0,10-4.69,49.39,49.39,0,0,0,8.71-7.94q4.18-4.78,9.24-11.18l2.8,1.8a81.48,81.48,0,0,1-9.92,14.07,53.22,53.22,0,0,1-11.55,9.83,47.35,47.35,0,0,1-13.49,5.73,63.35,63.35,0,0,1-15.65,1.85q-30.48,0-47.09-22.55-12.44-16.78-12.44-39.51a75.47,75.47,0,0,1,3-21.15,64,64,0,0,1,19.08-29.86,59.47,59.47,0,0,1,12-8.12,61.24,61.24,0,0,1,13.58-5,62.38,62.38,0,0,1,14.61-1.71,57.61,57.61,0,0,1,26.16,6.49c2.64,1.39,4.45,2,5.41,2a6,6,0,0,0,4.83-2.39,14.44,14.44,0,0,0,2.75-6.09Z" style="fill:#95c3e5"/><path d="M553.72,141.12q16.6,0,28.86,12.7t12.25,31.57q0,19.52-12.32,32.39a39.7,39.7,0,0,1-29.8,12.88Q535,230.66,523,218.1t-12-32.52q0-20.4,13.89-33.28A41,41,0,0,1,553.72,141.12Zm-1.2,4.61A23.62,23.62,0,0,0,541,148.51a24.21,24.21,0,0,0-8.49,7.93,39,39,0,0,0-5.24,12.47,68.84,68.84,0,0,0-1.8,16.41,72.17,72.17,0,0,0,1.77,16.55,41.45,41.45,0,0,0,5.21,12.91,25.41,25.41,0,0,0,8.49,8.4,22.44,22.44,0,0,0,11.68,3,26.77,26.77,0,0,0,11-2.27,23.1,23.1,0,0,0,8.81-7,35.27,35.27,0,0,0,5.84-12.15,64.55,64.55,0,0,0,2.12-17.62,79.37,79.37,0,0,0-1.74-17.46,39.1,39.1,0,0,0-5.24-13,24.13,24.13,0,0,0-8.72-8.12A25.23,25.23,0,0,0,552.52,145.73Z" style="fill:#95c3e5"/><path d="M626.08,188.61v24.94q0,8.08,1.76,10,2.4,2.78,7.27,2.78h3.28v2.33H601.7v-2.33h3.22a11.3,11.3,0,0,0,4.64-.89,6.94,6.94,0,0,0,3.13-2.65c.84-1.34,1.26-4.44,1.26-9.28V158.24q0-8-1.7-10c-1.64-1.86-4.09-2.78-7.33-2.78H601.7v-2.34h31.38q11.43,0,18.13,2.4a25.56,25.56,0,0,1,6.12,3.22,23.77,23.77,0,0,1,5,4.77,22.36,22.36,0,0,1,3.38,6.09,20.7,20.7,0,0,1,1.23,7.2,25.09,25.09,0,0,1-1.77,9.57,20.79,20.79,0,0,1-5.14,7.45,23.73,23.73,0,0,1-8.31,4.86,33.63,33.63,0,0,1-11.24,1.74A68,68,0,0,1,626.08,188.61Zm0-3.6q3.4.63,6,1a36.66,36.66,0,0,0,4.39.31,14.58,14.58,0,0,0,6.22-1.36,15.57,15.57,0,0,0,5.12-3.78,18.62,18.62,0,0,0,3.47-5.78,20.19,20.19,0,0,0,1.29-7.33,23.53,23.53,0,0,0-1.39-8.36,18,18,0,0,0-3.85-6.26,16.41,16.41,0,0,0-5.78-3.88,19.15,19.15,0,0,0-7.16-1.32,27.09,27.09,0,0,0-3.7.28,44.51,44.51,0,0,0-4.57.92Z" style="fill:#95c3e5"/><path d="M732.85,143.08h29.86v2.34h-1.64a7.5,7.5,0,0,0-2.05.38,18.62,18.62,0,0,0-2.75,1.07,20.08,20.08,0,0,0-3,1.77,18.22,18.22,0,0,0-2.78,2.4,29.32,29.32,0,0,0-2.87,3.6c-1,1.47-2.2,3.22-3.51,5.24L723.5,192.4v21.47q0,7.89,1.77,9.85c1.56,1.76,4.08,2.65,7.58,2.65h2.78v2.33H699.25v-2.33h3c3.62,0,6.18-1.1,7.7-3.29q1.39-2,1.39-9.21V193.6l-23.49-35.87c-1.39-2.15-2.56-3.86-3.51-5.15a34.4,34.4,0,0,0-2.17-2.74c-.26-.26-.68-.62-1.27-1.11a15.63,15.63,0,0,0-2.21-1.48,16,16,0,0,0-2.93-1.3,10.87,10.87,0,0,0-3.38-.53v-2.34H709v2.34h-1.89a12.94,12.94,0,0,0-2.81.31,8.4,8.4,0,0,0-2.56,1,6.21,6.21,0,0,0-1.86,1.74,4.21,4.21,0,0,0-.73,2.49q0,2.28,3.85,8.21l17.87,27.6,16.8-26.4q3.79-5.92,3.79-8.84a9.61,9.61,0,0,0-.57-2.46,5,5,0,0,0-1.39-2,6.46,6.46,0,0,0-2.59-1.26,16.25,16.25,0,0,0-4.1-.44Z" style="fill:#95c3e5"/><path d="M851.74,228.7H828.88l-29-40-2.94.1-2.3,0-1.77,0-2-.1v24.88q0,8.08,1.77,10,2.4,2.78,7.2,2.78h3.35v2.33H766.56v-2.33h3.22q5.37,0,7.77-3.54c.88-1.3,1.32-4.4,1.32-9.28V158.24q0-8.09-1.76-10c-1.65-1.86-4.09-2.78-7.33-2.78h-3.22v-2.34h31.19q13.51,0,20.08,2a21.61,21.61,0,0,1,6,2.84,22.7,22.7,0,0,1,4.93,4.49,20.79,20.79,0,0,1,3.35,5.81,19.09,19.09,0,0,1,1.23,6.88,21.22,21.22,0,0,1-1.27,7.42,18.63,18.63,0,0,1-3.88,6.28,24.23,24.23,0,0,1-6.6,4.93,38,38,0,0,1-9.34,3.28L830,211.59q6.12,8.53,10.42,11.24a26.53,26.53,0,0,0,11.36,3.54Zm-60.81-44c.8,0,1.5,0,2.09,0s1.07,0,1.45,0a37.18,37.18,0,0,0,10.77-1.42,22.61,22.61,0,0,0,7.73-4,16.18,16.18,0,0,0,4.64-6,18,18,0,0,0,1.55-7.48,19.34,19.34,0,0,0-1.33-7.29,16.53,16.53,0,0,0-3.75-5.72,16.94,16.94,0,0,0-5.81-3.72,20.06,20.06,0,0,0-7.42-1.33,38.09,38.09,0,0,0-4.3.28q-2.46.28-5.62.92Z" style="fill:#95c3e5"/><path d="M890.25,226.37v2.33H853.57v-2.33h3c3.58,0,6.14-1,7.7-3.1q1.51-2,1.52-9.72V158.24c0-2-.05-3.67-.13-4.93a15.63,15.63,0,0,0-.47-3.13,4.48,4.48,0,0,0-1-1.92,7.71,7.71,0,0,0-1.8-1.33,12,12,0,0,0-5.81-1.51h-3v-2.34h36.68v2.34h-3.09c-3.54,0-6.08,1-7.64,3.09q-1.57,2-1.58,9.73v55.31c0,2,0,3.66.13,4.93a14.85,14.85,0,0,0,.47,3.09,4.64,4.64,0,0,0,1,1.93,7.83,7.83,0,0,0,1.83,1.35,11.64,11.64,0,0,0,5.75,1.52Z" style="fill:#95c3e5"/><path d="M972.52,141.12l2.22,27h-2.22q-3.27-10-8.65-15.22-7.7-7.38-19.63-7.39-16.37,0-24.88,13-7.14,10.92-7.14,26A52,52,0,0,0,917,206.86a38.78,38.78,0,0,0,5,8.08,31.54,31.54,0,0,0,6.5,6.12,29.74,29.74,0,0,0,7.8,3.92,27.92,27.92,0,0,0,8.87,1.39,34.36,34.36,0,0,0,9.12-1.2,37.79,37.79,0,0,0,8.56-3.54V196.88a43.35,43.35,0,0,0-.25-5.27,13.38,13.38,0,0,0-.73-3.19,4.29,4.29,0,0,0-1.26-1.83,10.64,10.64,0,0,0-1.8-1.14q-2-1.06-7.2-1.07V182h33.15v2.4h-1.58a12.24,12.24,0,0,0-3.66.47,4.86,4.86,0,0,0-2.49,1.8,8.92,8.92,0,0,0-1.42,3.79,37.16,37.16,0,0,0-.45,6.44v26.2a74.34,74.34,0,0,1-7.32,3.45,56.58,56.58,0,0,1-14.62,3.69,71.78,71.78,0,0,1-8.11.44q-24.82,0-37.7-15.91a42.5,42.5,0,0,1-9.66-27.53,44.17,44.17,0,0,1,.88-8.75,50.22,50.22,0,0,1,2.53-8.55,48.59,48.59,0,0,1,9.41-15A39.3,39.3,0,0,1,925,144.47,47,47,0,0,1,943,141.12c2,0,3.7.08,5.17.22a34.74,34.74,0,0,1,4.3.7,43.31,43.31,0,0,1,4.39,1.26q2.29.8,5.46,1.93a16.73,16.73,0,0,0,4.73,1.32,2.53,2.53,0,0,0,2.06-1.1c.56-.74.91-2.18,1-4.33Z" style="fill:#95c3e5"/><path d="M1012.87,182.8h39.78V158.3c0-2,0-3.66-.13-4.93a15.41,15.41,0,0,0-.47-3.12,4.58,4.58,0,0,0-1-2,8.06,8.06,0,0,0-1.83-1.36,11.88,11.88,0,0,0-5.75-1.51h-3v-2.34h36.69l-.07,2.34h-3a13.27,13.27,0,0,0-2.52.25,10.41,10.41,0,0,0-2.53.82,8.22,8.22,0,0,0-2.11,1.42,5.09,5.09,0,0,0-1.36,2.05q-.71,2.08-.7,8.34v55.25c0,2,0,3.66.13,4.93a15.41,15.41,0,0,0,.47,3.12,4.58,4.58,0,0,0,1,1.93,7.92,7.92,0,0,0,1.8,1.32,11.75,11.75,0,0,0,5.81,1.52h3v2.33H1040.4v-2.33h3q5.17,0,7.64-3.1,1.58-2,1.58-9.72V187.47h-39.78v26.08c0,2,0,3.66.13,4.93a14.85,14.85,0,0,0,.47,3.09,4.64,4.64,0,0,0,1,1.93,7.62,7.62,0,0,0,1.83,1.35,11.64,11.64,0,0,0,5.75,1.52h3.09v2.33H988.5v-2.33h3q5.36,0,7.7-3.1,1.51-2,1.52-9.72V158.3c0-2,0-3.66-.13-4.93a16.15,16.15,0,0,0-.47-3.12,4.78,4.78,0,0,0-1-2,7.05,7.05,0,0,0-1.8-1.36,11.93,11.93,0,0,0-5.8-1.51h-3v-2.34h36.68v2.34h-3.09a13.22,13.22,0,0,0-2.56.25,10,10,0,0,0-2.46.82,8.47,8.47,0,0,0-2.09,1.42,5.17,5.17,0,0,0-1.35,2.05q-.76,2-.76,8.34Z" style="fill:#95c3e5"/><path d="M1154.24,143.08v20.08h-1.45a26.63,26.63,0,0,0-1.67-6.85,12.63,12.63,0,0,0-3.07-4.55,11.44,11.44,0,0,0-4.6-2.52,22.65,22.65,0,0,0-6.32-.79h-12.06v65.42q0,7.89,1.71,9.85c1.55,1.76,4,2.65,7.38,2.65h3v2.33h-36.31v-2.33h3q5.43,0,7.71-3.29c.92-1.3,1.39-4.37,1.39-9.21V148.45h-10.3a35.84,35.84,0,0,0-6.82.57,11.49,11.49,0,0,0-4.92,2.14,11.21,11.21,0,0,0-3.28,4.49,28.58,28.58,0,0,0-1.9,7.51h-2.4V143.08Z" style="fill:#95c3e5"/><path d="M1315.19,103.59l2.8,41.58h-2.8a69.9,69.9,0,0,0-6.81-16,42.12,42.12,0,0,0-9.15-10.92,34,34,0,0,0-11.37-6.22,44.42,44.42,0,0,0-13.53-2,39.74,39.74,0,0,0-21.74,6q-9.48,6-15.07,18.45a69.74,69.74,0,0,0-4.69,15.56,107.19,107.19,0,0,0-1.62,19.53q0,16.5,5.32,28.78a42.15,42.15,0,0,0,6.81,10.91,39.51,39.51,0,0,0,9.34,7.85,43.29,43.29,0,0,0,11.41,4.78,50.45,50.45,0,0,0,12.85,1.62A49.13,49.13,0,0,0,1290,222a32.67,32.67,0,0,0,10-4.69,49.34,49.34,0,0,0,8.7-7.94q4.2-4.78,9.25-11.18l2.8,1.8a81,81,0,0,1-9.93,14.07,53.41,53.41,0,0,1-11.54,9.83,47.35,47.35,0,0,1-13.49,5.73,63.41,63.41,0,0,1-15.65,1.85q-30.5,0-47.09-22.55-12.45-16.78-12.45-39.51a75.48,75.48,0,0,1,3-21.15,64,64,0,0,1,19.08-29.86,59.47,59.47,0,0,1,12-8.12,61.35,61.35,0,0,1,13.57-5,62.41,62.41,0,0,1,14.62-1.71,57.57,57.57,0,0,1,26.15,6.49q4,2.08,5.42,2a6,6,0,0,0,4.82-2.39,14.45,14.45,0,0,0,2.76-6.09Z" style="fill:#95c3e5"/><path d="M1374.12,141.12q16.61,0,28.85,12.7t12.25,31.57q0,19.52-12.31,32.39a39.7,39.7,0,0,1-29.8,12.88q-17.74,0-29.75-12.56t-12-32.52q0-20.4,13.89-33.28A41,41,0,0,1,1374.12,141.12Zm-1.2,4.61a23.62,23.62,0,0,0-11.56,2.78,24.13,24.13,0,0,0-8.49,7.93,38.8,38.8,0,0,0-5.24,12.47,68.84,68.84,0,0,0-1.8,16.41,72.75,72.75,0,0,0,1.76,16.55,41.69,41.69,0,0,0,5.21,12.91,25.53,25.53,0,0,0,8.5,8.4,22.42,22.42,0,0,0,11.68,3,26.77,26.77,0,0,0,11-2.27,23.17,23.17,0,0,0,8.81-7,35.27,35.27,0,0,0,5.84-12.15,64.58,64.58,0,0,0,2.11-17.62,80,80,0,0,0-1.73-17.46,39.1,39.1,0,0,0-5.24-13,24.21,24.21,0,0,0-8.72-8.12A25.23,25.23,0,0,0,1372.92,145.73Z" style="fill:#95c3e5"/><path d="M1418.25,143.08h23.23l52.35,64.22V157.92c0-5.26-.59-8.55-1.77-9.85q-2.4-2.65-7.39-2.65h-3v-2.34h29.8v2.34h-3q-5.43,0-7.7,3.28-1.4,2-1.39,9.22v72.17h-2.28l-56.45-69v52.73q0,7.89,1.71,9.85c1.56,1.76,4,2.65,7.39,2.65h3v2.33H1423v-2.33h3q5.49,0,7.77-3.29c.92-1.3,1.39-4.37,1.39-9.21V154.32q-1.9-2.2-3.16-3.54a19,19,0,0,0-2.4-2.17,10.67,10.67,0,0,0-2.46-1.39c-.89-.36-2-.77-3.29-1.23a20,20,0,0,0-5.55-.57Z" style="fill:#95c3e5"/><path d="M1572.38,141.12v29.62H1570q-1.14-8.52-4.1-13.58a19.08,19.08,0,0,0-3.64-4.54,24.37,24.37,0,0,0-4.73-3.45,25.26,25.26,0,0,0-5.43-2.21,22,22,0,0,0-5.78-.79,16,16,0,0,0-6,1.11,16.27,16.27,0,0,0-4.83,2.94,13.31,13.31,0,0,0-3.19,4.2,11.11,11.11,0,0,0-1.13,4.89,11.32,11.32,0,0,0,1.64,6.16,18.85,18.85,0,0,0,4.51,4.83,50.05,50.05,0,0,0,6.76,4.29q3.89,2.08,8.43,4.48,5.12,2.72,9.72,5.31a45.7,45.7,0,0,1,8.12,5.71,25,25,0,0,1,5.59,7.14,20.62,20.62,0,0,1,2.08,9.63,21.49,21.49,0,0,1-2,9.12,23.49,23.49,0,0,1-5.56,7.58,27.16,27.16,0,0,1-8.52,5.18,30,30,0,0,1-10.89,1.92c-1.48,0-2.74,0-3.79-.06a28.87,28.87,0,0,1-3-.28,20.84,20.84,0,0,1-3-.7c-1-.32-2.27-.75-3.7-1.29q-1.51-.57-3.09-1.05c-1-.31-2-.57-2.91-.79s-1.63-.37-2.24-.5a7.57,7.57,0,0,0-1.16-.19,3.32,3.32,0,0,0-2.5.95c-.61.63-1.06,1.93-1.36,3.91H1522V201.3h2.33a62.11,62.11,0,0,0,1.93,8,28.76,28.76,0,0,0,2.49,5.78,18.88,18.88,0,0,0,3.6,4.23,24.78,24.78,0,0,0,5,3.38,27,27,0,0,0,5.94,2.21,27.34,27.34,0,0,0,6.53.79,21,21,0,0,0,7.14-1.14,16.74,16.74,0,0,0,5.36-3.06,13.12,13.12,0,0,0,3.38-4.49,12.65,12.65,0,0,0,1.17-5.33,13.19,13.19,0,0,0-1.7-6.92,18.65,18.65,0,0,0-4.58-5,47.79,47.79,0,0,0-6.7-4.23q-3.81-2-8-4.54-4.8-2.85-9.25-5.4a46.15,46.15,0,0,1-7.86-5.62,24.89,24.89,0,0,1-5.46-7,19.84,19.84,0,0,1-2-9.34,20.42,20.42,0,0,1,1.89-8.65,22.54,22.54,0,0,1,5.24-7.2,24.83,24.83,0,0,1,7.93-4.9,27.07,27.07,0,0,1,10-1.8,36.79,36.79,0,0,1,14.47,3.35,13.88,13.88,0,0,0,5,1.58,3.79,3.79,0,0,0,2.69-1,7.85,7.85,0,0,0,1.67-3.95Z" style="fill:#95c3e5"/><path d="M1646.44,145.42v-2.34h30.31v2.34h-3.22a8.7,8.7,0,0,0-7.77,4.23q-1.32,2-1.32,9.09v34.73q0,12.83-2.59,20a22.52,22.52,0,0,1-4.68,7.86,25.93,25.93,0,0,1-7,5.33,33.44,33.44,0,0,1-8.75,3.07,49.6,49.6,0,0,1-10,1q-14,0-21.28-4.87a27.24,27.24,0,0,1-7.1-6.41,23.22,23.22,0,0,1-3.66-7.45,38,38,0,0,1-1.36-9q-.19-5-.19-11.27V158.24a32.11,32.11,0,0,0-.54-6.51,9,9,0,0,0-1.67-3.91,5.67,5.67,0,0,0-2.87-1.9,15.23,15.23,0,0,0-4.14-.5h-3.22v-2.34h37v2.34h-3.28a11.61,11.61,0,0,0-4.86.85,6.09,6.09,0,0,0-2.78,2.49,10.61,10.61,0,0,0-1.23,4.05,46.23,46.23,0,0,0-.29,5.43v37.31c0,2.11.07,4.19.19,6.26a45.11,45.11,0,0,0,.76,6,33.26,33.26,0,0,0,1.55,5.43,19.49,19.49,0,0,0,2.56,4.71,17.13,17.13,0,0,0,6.6,5.4,24.49,24.49,0,0,0,10.57,2,32.21,32.21,0,0,0,8-1,30.59,30.59,0,0,0,7-2.72,23.67,23.67,0,0,0,5.52-4.1,16.62,16.62,0,0,0,3.54-5.21q2.46-5.74,2.46-19.39V158.24q0-8.09-1.77-10c-1.64-1.86-4.08-2.78-7.32-2.78Z" style="fill:#95c3e5"/><path d="M1752,205l2.08.44-7.32,23.23h-66.3v-2.33h3.22c3.58,0,6.16-1.18,7.77-3.54.88-1.3,1.32-4.42,1.32-9.34V158.24q0-8.09-1.77-10c-1.64-1.86-4.08-2.78-7.32-2.78h-3.22v-2.34h38.77v2.34a44,44,0,0,0-5.78.31,15,15,0,0,0-3.79,1,7.3,7.3,0,0,0-2.33,1.48,8.18,8.18,0,0,0-1.42,1.87q-1,2-1,9.66v53.8c0,1.47.06,2.73.16,3.79a11.43,11.43,0,0,0,.54,2.62,4.8,4.8,0,0,0,1,1.7,4.32,4.32,0,0,0,1.64,1q1.51.63,9.85.63h6.25q9.8,0,13.83-1.45a15.8,15.8,0,0,0,3.79-1.89,16.86,16.86,0,0,0,3.44-3.19,32.64,32.64,0,0,0,3.29-4.83A69.22,69.22,0,0,0,1752,205Z" style="fill:#95c3e5"/><path d="M1819.57,143.08v20.08h-1.45a26.6,26.6,0,0,0-1.68-6.85,12.74,12.74,0,0,0-3.06-4.55,11.41,11.41,0,0,0-4.61-2.52,22.53,22.53,0,0,0-6.31-.79H1790.4v65.42c0,5.26.56,8.54,1.7,9.85,1.56,1.76,4,2.65,7.39,2.65h3v2.33h-36.31v-2.33h3q5.43,0,7.7-3.29,1.39-2,1.39-9.21V148.45H1768a35.84,35.84,0,0,0-6.82.57,11.38,11.38,0,0,0-4.92,2.14,11.23,11.23,0,0,0-3.29,4.49,29,29,0,0,0-1.89,7.51h-2.4V143.08Z" style="fill:#95c3e5"/></svg>