<svg id="Version_2" data-name="Version 2" xmlns="http://www.w3.org/2000/svg" xmlns:xlink="http://www.w3.org/1999/xlink" viewBox="0 0 944.75 338.52"><defs><linearGradient id="Unbenannter_Verlauf_44" x1="67.55" y1="212.07" x2="233.55" y2="139.67" gradientUnits="userSpaceOnUse"><stop offset="0" stop-color="#0071bc"/><stop offset="0.09" stop-color="#107fca"/><stop offset="0.26" stop-color="#2592dd"/><stop offset="0.45" stop-color="#349feb"/><stop offset="0.67" stop-color="#3ca7f3"/><stop offset="1" stop-color="#3fa9f5"/></linearGradient><linearGradient id="Unbenannter_Verlauf_44-2" x1="26.31" y1="229.35" x2="296.45" y2="111.08" xlink:href="#Unbenannter_Verlauf_44"/></defs><line x1="339.24" y1="338.52" x2="339.24" style="fill:#0071bc;stroke:#00aef0;stroke-miterlimit:10;stroke-width:5px"/><path d="M259.52,101.51l-17,13a92.9,92.9,0,0,0-33.77-27.76,98.75,98.75,0,0,0-43.28-9.45,95.71,95.71,0,0,0-47.76,12.38,88.72,88.72,0,0,0-34,33.25q-12.09,20.88-12.09,46.95,0,39.41,27,65.77t68.18,26.37q45.27,0,75.74-35.45l17,12.89a108.62,108.62,0,0,1-40.21,31.71q-24.1,11.21-53.83,11.21-56.55,0-89.21-37.65Q48.87,213,48.88,168q0-47.31,33.17-79.61t83.13-32.3q30.18,0,54.5,11.94A105.8,105.8,0,0,1,259.52,101.51Z" style="fill:url(#Unbenannter_Verlauf_44)"/><path d="M294.9,74.41,271.11,92.66Q251.43,67,223.84,53.8t-60.6-13.23A133.93,133.93,0,0,0,96.39,57.9Q65.63,75.24,48.71,104.45T31.79,170.18q0,55.17,37.83,92.08t95.47,36.92q63.36,0,106-49.63l23.79,18A152,152,0,0,1,238.61,312q-33.74,15.69-75.37,15.69-79.16,0-124.89-52.7Q0,230.48,0,167.52,0,101.28,46.45,56.06T162.83,10.84q42.25,0,76.29,16.71A148.06,148.06,0,0,1,294.9,74.41Z" style="fill:url(#Unbenannter_Verlauf_44-2)"/><path d="M426.92,143.67l1.09,16.2h-1.09a27.63,27.63,0,0,0-2.65-6.22,16.66,16.66,0,0,0-3.57-4.25,13.27,13.27,0,0,0-4.43-2.43,17.19,17.19,0,0,0-5.28-.77,15.57,15.57,0,0,0-8.47,2.33,15.92,15.92,0,0,0-5.87,7.19,26.72,26.72,0,0,0-1.83,6.07,41.87,41.87,0,0,0-.63,7.61,28,28,0,0,0,2.07,11.21,16.34,16.34,0,0,0,2.66,4.26,15.19,15.19,0,0,0,3.64,3.06,16.82,16.82,0,0,0,4.44,1.86,19.77,19.77,0,0,0,5,.63,19.08,19.08,0,0,0,5.1-.6A12.45,12.45,0,0,0,421,188a18.7,18.7,0,0,0,3.4-3.1Q426,183,428,180.54l1.09.71a32,32,0,0,1-3.87,5.48,20.36,20.36,0,0,1-4.5,3.83,18.53,18.53,0,0,1-5.25,2.24,24.7,24.7,0,0,1-6.1.72q-11.89,0-18.36-8.79a25.15,25.15,0,0,1-4.85-15.4,29.52,29.52,0,0,1,1.16-8.25,24.09,24.09,0,0,1,3.59-7.36,23.77,23.77,0,0,1,3.85-4.27,23.16,23.16,0,0,1,4.67-3.17,24,24,0,0,1,11-2.61,22.45,22.45,0,0,1,10.2,2.53,5.21,5.21,0,0,0,2.11.77,2.34,2.34,0,0,0,1.88-.93,5.64,5.64,0,0,0,1.07-2.37Z" style="fill:#95c3e5"/><path d="M449.88,158.29a15.12,15.12,0,0,1,11.25,5,17,17,0,0,1,4.77,12.3,17.59,17.59,0,0,1-4.79,12.63,16.06,16.06,0,0,1-23.21.12q-4.68-4.89-4.68-12.67a16.89,16.89,0,0,1,5.42-13A15.93,15.93,0,0,1,449.88,158.29Zm-.46,1.8a9.23,9.23,0,0,0-4.51,1.08,9.46,9.46,0,0,0-3.31,3.09,15.41,15.41,0,0,0-2,4.86,26.81,26.81,0,0,0-.7,6.4,28.1,28.1,0,0,0,.69,6.45,16.06,16.06,0,0,0,2,5,9.94,9.94,0,0,0,3.31,3.27,8.73,8.73,0,0,0,4.55,1.17,10.47,10.47,0,0,0,4.3-.88,9,9,0,0,0,3.43-2.75,13.77,13.77,0,0,0,2.27-4.74,25.06,25.06,0,0,0,.83-6.86,31.14,31.14,0,0,0-.68-6.81,15.18,15.18,0,0,0-2-5.05,9.24,9.24,0,0,0-3.4-3.16A9.69,9.69,0,0,0,449.42,160.09Z" style="fill:#95c3e5"/><path d="M478.08,176.8v9.72c0,2.1.23,3.4.69,3.91a3.56,3.56,0,0,0,2.83,1.09h1.28v.91h-14.3v-.91h1.26a4.43,4.43,0,0,0,1.81-.35,2.73,2.73,0,0,0,1.22-1,8.37,8.37,0,0,0,.49-3.62V165c0-2.08-.22-3.39-.67-3.91a3.61,3.61,0,0,0-2.85-1.08h-1.26v-.91h12.24a21.64,21.64,0,0,1,7.06.93,9.94,9.94,0,0,1,2.39,1.26,9.45,9.45,0,0,1,1.94,1.85,8.79,8.79,0,0,1,1.32,2.38,8,8,0,0,1,.48,2.8,9.72,9.72,0,0,1-.69,3.73,8,8,0,0,1-2,2.91,9.19,9.19,0,0,1-3.23,1.89,13.21,13.21,0,0,1-4.38.68A26.56,26.56,0,0,1,478.08,176.8Zm0-1.4c.89.16,1.67.28,2.33.37a14.49,14.49,0,0,0,1.71.12,5.73,5.73,0,0,0,2.42-.53,5.93,5.93,0,0,0,2-1.48,7.41,7.41,0,0,0,1.35-2.25,7.76,7.76,0,0,0,.51-2.85,9.21,9.21,0,0,0-.55-3.26,7,7,0,0,0-1.5-2.44,6.38,6.38,0,0,0-2.25-1.51,7.33,7.33,0,0,0-2.79-.52,11.16,11.16,0,0,0-1.44.11,14.91,14.91,0,0,0-1.79.36Z" style="fill:#95c3e5"/><path d="M519.7,159.06h11.64V160h-.64a3.27,3.27,0,0,0-.8.14,6.94,6.94,0,0,0-1.07.42,7.52,7.52,0,0,0-1.16.69,6.94,6.94,0,0,0-1.08.94,11.57,11.57,0,0,0-1.12,1.4c-.41.57-.86,1.26-1.37,2l-8.05,12.68v8.36q0,3.08.69,3.84a3.76,3.76,0,0,0,3,1h1.08v.91H506.6v-.91h1.18a3.4,3.4,0,0,0,3-1.28q.54-.77.54-3.6v-7.9l-9.16-14c-.54-.84-1-1.51-1.36-2a12.74,12.74,0,0,0-.85-1.07c-.1-.1-.26-.24-.49-.43a6.72,6.72,0,0,0-.86-.58,6.33,6.33,0,0,0-1.15-.5,4.15,4.15,0,0,0-1.32-.21v-.91h14.28V160h-.74a5.22,5.22,0,0,0-1.1.12,3.11,3.11,0,0,0-1,.39,2.38,2.38,0,0,0-.73.68,1.65,1.65,0,0,0-.28,1,7.78,7.78,0,0,0,1.5,3.2l7,10.76,6.55-10.29a7.54,7.54,0,0,0,1.48-3.45,4.2,4.2,0,0,0-.22-1,2,2,0,0,0-.55-.76,2.44,2.44,0,0,0-1-.49,6,6,0,0,0-1.59-.17Z" style="fill:#95c3e5"/><path d="M566,192.43h-8.91l-11.29-15.61-1.15,0H543.1l-.77,0v9.7c0,2.1.23,3.4.69,3.91a3.53,3.53,0,0,0,2.81,1.09h1.3v.91h-14.3v-.91h1.26a3.41,3.41,0,0,0,3-1.38,7.89,7.89,0,0,0,.51-3.62V165c0-2.1-.23-3.4-.69-3.91a3.61,3.61,0,0,0-2.85-1.08h-1.26v-.91H545a29,29,0,0,1,7.83.78,8.72,8.72,0,0,1,2.35,1.11,8.89,8.89,0,0,1,1.92,1.75,8.17,8.17,0,0,1,1.3,2.26,7.47,7.47,0,0,1,.48,2.69,8.31,8.31,0,0,1-.49,2.89,7.4,7.4,0,0,1-1.51,2.45,9.57,9.57,0,0,1-2.58,1.91,14.24,14.24,0,0,1-3.64,1.28l6.89,9.58a17.37,17.37,0,0,0,4.06,4.38,10.48,10.48,0,0,0,4.43,1.38Zm-23.7-17.16.82,0h.56a14.38,14.38,0,0,0,4.2-.56,8.7,8.7,0,0,0,3-1.53,6.25,6.25,0,0,0,1.81-2.33,7,7,0,0,0,.6-2.92,7.67,7.67,0,0,0-.51-2.84,6.38,6.38,0,0,0-1.47-2.22,6.57,6.57,0,0,0-2.26-1.46,7.94,7.94,0,0,0-2.89-.51,13.56,13.56,0,0,0-1.68.11c-.64.07-1.37.19-2.19.35Z" style="fill:#95c3e5"/><path d="M581,191.52v.91h-14.3v-.91h1.19a3.54,3.54,0,0,0,3-1.21c.39-.51.59-1.77.59-3.79V165c0-.79,0-1.43,0-1.92a6,6,0,0,0-.18-1.22,1.9,1.9,0,0,0-.4-.75,2.7,2.7,0,0,0-.7-.51,4.6,4.6,0,0,0-2.26-.59h-1.19v-.91H581V160h-1.2a3.51,3.51,0,0,0-3,1.2c-.41.51-.62,1.77-.62,3.79v21.56c0,.79,0,1.43,0,1.92a6.55,6.55,0,0,0,.19,1.21,1.79,1.79,0,0,0,.4.75,3.36,3.36,0,0,0,.72.53,4.55,4.55,0,0,0,2.24.59Z" style="fill:#95c3e5"/><path d="M613.11,158.29l.86,10.54h-.86a14.23,14.23,0,0,0-3.38-5.93,10.6,10.6,0,0,0-7.65-2.88,10.9,10.9,0,0,0-9.7,5,18.17,18.17,0,0,0-2.78,10.14,20.26,20.26,0,0,0,1.85,8.71,15,15,0,0,0,1.94,3.15,12.45,12.45,0,0,0,2.54,2.39,11.39,11.39,0,0,0,3,1.52,10.67,10.67,0,0,0,3.46.55,13.45,13.45,0,0,0,3.55-.47,14.74,14.74,0,0,0,3.34-1.38V180a18.23,18.23,0,0,0-.1-2.05,5,5,0,0,0-.29-1.24,1.62,1.62,0,0,0-.49-.72,4,4,0,0,0-.7-.44,6.51,6.51,0,0,0-2.8-.42v-.93h12.92v.93h-.62a4.63,4.63,0,0,0-1.43.19,1.83,1.83,0,0,0-1,.7,3.48,3.48,0,0,0-.55,1.47,14.28,14.28,0,0,0-.17,2.51v10.22a31.32,31.32,0,0,1-2.86,1.34,22.14,22.14,0,0,1-2.79.91,23,23,0,0,1-2.91.53,28.57,28.57,0,0,1-3.16.17q-9.67,0-14.69-6.2a16.57,16.57,0,0,1-3.77-10.73,17.24,17.24,0,0,1,.35-3.41,20.2,20.2,0,0,1,1-3.33,18.65,18.65,0,0,1,1.58-3.12,18.34,18.34,0,0,1,2.09-2.74,15.29,15.29,0,0,1,5.62-4.06,18.33,18.33,0,0,1,7.05-1.31,19.7,19.7,0,0,1,2,.09,14.55,14.55,0,0,1,1.67.27,16,16,0,0,1,1.71.49l2.13.75a6.43,6.43,0,0,0,1.85.52,1,1,0,0,0,.8-.43,3.32,3.32,0,0,0,.41-1.69Z" style="fill:#95c3e5"/><path d="M628.83,174.54h15.5V165c0-.79,0-1.43-.05-1.92a5.87,5.87,0,0,0-.18-1.22,1.78,1.78,0,0,0-.41-.76,2.74,2.74,0,0,0-.71-.53,4.55,4.55,0,0,0-2.24-.59h-1.18v-.91h14.3l0,.91h-1.18a4.87,4.87,0,0,0-1,.1,3.7,3.7,0,0,0-1,.32,3.1,3.1,0,0,0-.82.55,2,2,0,0,0-.53.8,12.41,12.41,0,0,0-.27,3.25v21.53c0,.79,0,1.43.05,1.92a6,6,0,0,0,.18,1.22,1.68,1.68,0,0,0,.4.75,3,3,0,0,0,.7.52,4.59,4.59,0,0,0,2.26.59h1.18v.91H639.56v-.91h1.18a3.6,3.6,0,0,0,3-1.21c.41-.51.61-1.77.61-3.79V176.36h-15.5v10.16c0,.79,0,1.43,0,1.92a5.87,5.87,0,0,0,.18,1.21,1.8,1.8,0,0,0,.41.75,3.54,3.54,0,0,0,.71.53,4.57,4.57,0,0,0,2.24.59h1.21v.91h-14.3v-.91h1.18a3.51,3.51,0,0,0,3-1.21c.4-.51.59-1.77.59-3.79V165c0-.79,0-1.43-.05-1.92a5.87,5.87,0,0,0-.18-1.22,1.88,1.88,0,0,0-.39-.76,2.85,2.85,0,0,0-.7-.53,4.63,4.63,0,0,0-2.27-.59h-1.18v-.91h14.3V160h-1.21a4.75,4.75,0,0,0-1,.1,3.5,3.5,0,0,0-1,.32,3.1,3.1,0,0,0-.82.55,2.2,2.2,0,0,0-.53.8,11.57,11.57,0,0,0-.29,3.25Z" style="fill:#95c3e5"/><path d="M683.93,159.06v7.82h-.57a10.44,10.44,0,0,0-.65-2.67,4.78,4.78,0,0,0-1.2-1.77,4.39,4.39,0,0,0-1.79-1,8.7,8.7,0,0,0-2.46-.31h-4.7v25.49q0,3.08.66,3.84a3.66,3.66,0,0,0,2.88,1h1.16v.91H663.11v-.91h1.18a3.39,3.39,0,0,0,3-1.28q.54-.77.54-3.6V161.15h-4a13.86,13.86,0,0,0-2.66.22,4.54,4.54,0,0,0-1.92.84A4.44,4.44,0,0,0,658,164a11.56,11.56,0,0,0-.73,2.93h-.94v-7.82Z" style="fill:#95c3e5"/><path d="M746.65,143.67l1.09,16.2h-1.09a27.19,27.19,0,0,0-2.65-6.22,16.27,16.27,0,0,0-3.57-4.25A13.08,13.08,0,0,0,736,147a17.13,17.13,0,0,0-5.27-.77,15.55,15.55,0,0,0-8.47,2.33,15.94,15.94,0,0,0-5.88,7.19,27.24,27.24,0,0,0-1.82,6.07,41,41,0,0,0-.64,7.61A28,28,0,0,0,716,180.61a16.32,16.32,0,0,0,2.65,4.26,15.39,15.39,0,0,0,3.64,3.06,16.74,16.74,0,0,0,4.45,1.86,19.65,19.65,0,0,0,5,.63,19.08,19.08,0,0,0,5.1-.6,12.45,12.45,0,0,0,3.9-1.82,19,19,0,0,0,3.39-3.1q1.64-1.86,3.6-4.36l1.09.71a31.39,31.39,0,0,1-3.86,5.48,20.83,20.83,0,0,1-4.5,3.83,18.47,18.47,0,0,1-5.26,2.24,24.7,24.7,0,0,1-6.1.72q-11.88,0-18.35-8.79a25.15,25.15,0,0,1-4.85-15.4,29.16,29.16,0,0,1,1.16-8.25,24.88,24.88,0,0,1,7.43-11.63,23.23,23.23,0,0,1,4.68-3.17,24,24,0,0,1,11-2.61,22.41,22.41,0,0,1,10.19,2.53,5.26,5.26,0,0,0,2.11.77,2.32,2.32,0,0,0,1.88-.93,5.52,5.52,0,0,0,1.07-2.37Z" style="fill:#95c3e5"/><path d="M769.62,158.29a15.11,15.11,0,0,1,11.24,5,16.93,16.93,0,0,1,4.78,12.3,17.56,17.56,0,0,1-4.8,12.63,16.06,16.06,0,0,1-23.21.12Q753,183.4,753,175.62a16.88,16.88,0,0,1,5.41-13A15.94,15.94,0,0,1,769.62,158.29Zm-.47,1.8a9.19,9.19,0,0,0-4.5,1.08,9.29,9.29,0,0,0-3.31,3.09,15.19,15.19,0,0,0-2.05,4.86,27.33,27.33,0,0,0-.7,6.4,28.1,28.1,0,0,0,.69,6.45,16.3,16.3,0,0,0,2,5,10,10,0,0,0,3.31,3.27,8.73,8.73,0,0,0,4.55,1.17,10.4,10.4,0,0,0,4.3-.88,9,9,0,0,0,3.43-2.75,13.77,13.77,0,0,0,2.28-4.74,25.09,25.09,0,0,0,.82-6.86,31.18,31.18,0,0,0-.67-6.81,15.18,15.18,0,0,0-2.05-5.05,9.29,9.29,0,0,0-3.39-3.16A9.73,9.73,0,0,0,769.15,160.09Z" style="fill:#95c3e5"/><path d="M786.82,159.06h9l20.41,25V164.84q0-3.08-.69-3.84a3.71,3.71,0,0,0-2.88-1h-1.16v-.91h11.62V160H822a3.37,3.37,0,0,0-3,1.28c-.36.51-.54,1.7-.54,3.59V193h-.89l-22-26.88v20.55c0,2.05.23,3.33.67,3.84a3.66,3.66,0,0,0,2.88,1h1.18v.91H788.66v-.91h1.16a3.43,3.43,0,0,0,3-1.28q.54-.77.54-3.6v-23.2q-.74-.87-1.23-1.38a7,7,0,0,0-.94-.85,4.1,4.1,0,0,0-1-.54c-.34-.14-.77-.3-1.28-.48a7.68,7.68,0,0,0-2.16-.22Z" style="fill:#95c3e5"/><path d="M846.89,158.29v11.54H846a14.39,14.39,0,0,0-1.6-5.29,7.73,7.73,0,0,0-1.42-1.77,9.62,9.62,0,0,0-1.84-1.34,9.82,9.82,0,0,0-2.12-.86,8.3,8.3,0,0,0-2.25-.31,6.4,6.4,0,0,0-2.34.43,6.24,6.24,0,0,0-1.88,1.15,5.15,5.15,0,0,0-1.25,1.63,4.45,4.45,0,0,0-.44,1.91,4.39,4.39,0,0,0,.64,2.4,7.21,7.21,0,0,0,1.76,1.88,20.29,20.29,0,0,0,2.63,1.68l3.29,1.74c1.33.71,2.59,1.4,3.79,2.07a17.74,17.74,0,0,1,3.16,2.23,9.69,9.69,0,0,1,2.18,2.78,8,8,0,0,1,.81,3.75,8.54,8.54,0,0,1-.77,3.56,9.1,9.1,0,0,1-2.17,2.95,10.44,10.44,0,0,1-3.32,2,11.68,11.68,0,0,1-4.25.75q-.86,0-1.47,0a8.76,8.76,0,0,1-1.18-.11,6.55,6.55,0,0,1-1.17-.27c-.41-.12-.89-.29-1.44-.5s-.8-.28-1.21-.41-.79-.22-1.13-.3l-.87-.2a3.33,3.33,0,0,0-.46-.08,1.31,1.31,0,0,0-1,.37,2.91,2.91,0,0,0-.53,1.53h-.91V181.75h.91a23.31,23.31,0,0,0,.75,3.13,11.26,11.26,0,0,0,1,2.26,7.14,7.14,0,0,0,1.4,1.64,9.47,9.47,0,0,0,1.94,1.32,10.1,10.1,0,0,0,2.31.86,10.35,10.35,0,0,0,2.55.31,8.32,8.32,0,0,0,2.78-.44,6.55,6.55,0,0,0,2.09-1.2,5.29,5.29,0,0,0,1.32-1.74,5,5,0,0,0,.45-2.08,5.14,5.14,0,0,0-.66-2.7,7.33,7.33,0,0,0-1.79-2,17.53,17.53,0,0,0-2.61-1.64c-1-.53-2-1.12-3.13-1.77-1.25-.74-2.45-1.45-3.61-2.11a17.09,17.09,0,0,1-3.06-2.19,9.43,9.43,0,0,1-2.13-2.72,7.67,7.67,0,0,1-.8-3.64,7.81,7.81,0,0,1,.74-3.37,8.82,8.82,0,0,1,2-2.81A9.88,9.88,0,0,1,832.8,159a10.73,10.73,0,0,1,3.9-.7,14.26,14.26,0,0,1,5.63,1.31,5.41,5.41,0,0,0,1.95.61,1.44,1.44,0,0,0,1-.38,3.09,3.09,0,0,0,.66-1.54Z" style="fill:#95c3e5"/><path d="M875.75,160v-.91h11.81V160h-1.25a3.4,3.4,0,0,0-3,1.65,7.63,7.63,0,0,0-.52,3.54v13.53a24,24,0,0,1-1,7.81,8.85,8.85,0,0,1-1.83,3.06,10,10,0,0,1-2.73,2.08,12.74,12.74,0,0,1-3.41,1.19,18.75,18.75,0,0,1-3.87.38q-5.45,0-8.29-1.89a10.53,10.53,0,0,1-2.77-2.5,8.93,8.93,0,0,1-1.43-2.9,15,15,0,0,1-.53-3.52c0-1.29-.07-2.75-.07-4.39V165a12.45,12.45,0,0,0-.21-2.53,3.62,3.62,0,0,0-.65-1.53,2.24,2.24,0,0,0-1.12-.74,6,6,0,0,0-1.62-.19H852v-.91H866.4V160h-1.28a4.51,4.51,0,0,0-1.89.33,2.35,2.35,0,0,0-1.09,1,4.32,4.32,0,0,0-.48,1.58,18.84,18.84,0,0,0-.11,2.11v14.55c0,.82,0,1.63.08,2.43a15.78,15.78,0,0,0,.29,2.33,13.3,13.3,0,0,0,.6,2.11,8,8,0,0,0,1,1.84,6.67,6.67,0,0,0,2.57,2.1,9.49,9.49,0,0,0,4.12.78,12.76,12.76,0,0,0,3.12-.38,12.2,12.2,0,0,0,2.73-1.06,9.06,9.06,0,0,0,2.15-1.6,6.42,6.42,0,0,0,1.38-2c.64-1.5,1-4,1-7.56V165c0-2.1-.23-3.4-.69-3.91A3.61,3.61,0,0,0,877,160Z" style="fill:#95c3e5"/><path d="M916.9,183.2l.81.17-2.86,9.06H889v-.91h1.26a3.38,3.38,0,0,0,3-1.38c.35-.51.52-1.73.52-3.64V165c0-2.1-.23-3.4-.69-3.91a3.61,3.61,0,0,0-2.85-1.08H889v-.91h15.11V160a17.5,17.5,0,0,0-2.25.12,5.59,5.59,0,0,0-1.48.37,3,3,0,0,0-.91.58,3.44,3.44,0,0,0-.55.72,10.75,10.75,0,0,0-.39,3.77v21q0,.85.06,1.47a4.14,4.14,0,0,0,.21,1,2,2,0,0,0,.39.67,1.66,1.66,0,0,0,.64.4,15.32,15.32,0,0,0,3.84.25h2.44a17.7,17.7,0,0,0,5.39-.57A6.3,6.3,0,0,0,913,189a6.73,6.73,0,0,0,1.34-1.25,11.8,11.8,0,0,0,1.28-1.88A27.18,27.18,0,0,0,916.9,183.2Z" style="fill:#95c3e5"/><path d="M943.23,159.06v7.82h-.57a10.44,10.44,0,0,0-.65-2.67,4.9,4.9,0,0,0-1.2-1.77,4.39,4.39,0,0,0-1.79-1,8.7,8.7,0,0,0-2.46-.31h-4.7v25.49q0,3.08.66,3.84a3.66,3.66,0,0,0,2.88,1h1.16v.91H922.41v-.91h1.18a3.39,3.39,0,0,0,3-1.28q.54-.77.54-3.6V161.15h-4a13.86,13.86,0,0,0-2.66.22,4.54,4.54,0,0,0-1.92.84,4.44,4.44,0,0,0-1.28,1.74,11.52,11.52,0,0,0-.74,2.93h-.93v-7.82Z" style="fill:#95c3e5"/></svg>